# xmcd
#
# Track frame offsets: 
#        150
#        22467
#        40959
#        58290
#        74380
#        91656
#        107159
#        122465
#        147307
#        170480
#        188946
#        206135
#
# Disc length: 3040 seconds
#
# Revision: 0
# Processed by: cddbd v1.5.2PL0 Copyright (c) Steve Scherf et al.
# Submitted via: ExactAudioCopy v0.95b3
#
DISCID=b70bde0c
DTITLE=Mary Chapin Carpenter - Come On Come On
DYEAR=1992
DGENRE=Country
TTITLE0=The Hard Way
TTITLE1=He Thinks He'll Keep Her
TTITLE2=Rhythm Of The Blues
TTITLE3=I Feel Lucky
TTITLE4=The Bug
TTITLE5=No Too Much To Ask
TTITLE6=Passionate Kisses
TTITLE7=Only A Dream
TTITLE8=I Am A Town
TTITLE9=Walking Through Fire
TTITLE10=I Take My Chances
TTITLE11=Come On Come On
EXTD=
EXTT0=
EXTT1=
EXTT2=
EXTT3=
EXTT4=
EXTT5=
EXTT6=
EXTT7=
EXTT8=
EXTT9=
EXTT10=
EXTT11=
PLAYORDER=
